<?xml version="1.0" encoding="UTF-8" standalone="no"?>
<!-- Created with Inkscape (http://www.inkscape.org/) -->

<svg
   version="1.1"
   id="svg1"
   width="737.53235"
   height="120.37183"
   viewBox="0 0 737.53235 120.37183"
   sodipodi:docname="rhyloo_solutions_horizontal.svg"
   inkscape:version="1.4 (86a8ad7, 2024-10-11)"
   xmlns:inkscape="http://www.inkscape.org/namespaces/inkscape"
   xmlns:sodipodi="http://sodipodi.sourceforge.net/DTD/sodipodi-0.dtd"
   xmlns="http://www.w3.org/2000/svg"
   xmlns:svg="http://www.w3.org/2000/svg">
  <defs
     id="defs1">
    <pattern
       id="EMFhbasepattern"
       patternUnits="userSpaceOnUse"
       width="6"
       height="6"
       x="0"
       y="0" />
  </defs>
  <sodipodi:namedview
     id="namedview1"
     pagecolor="#ffffff"
     bordercolor="#000000"
     borderopacity="0.25"
     inkscape:showpageshadow="2"
     inkscape:pageopacity="0.0"
     inkscape:pagecheckerboard="0"
     inkscape:deskcolor="#d1d1d1"
     showgrid="false"
     showguides="true"
     inkscape:zoom="1.3517202"
     inkscape:cx="338.45762"
     inkscape:cy="146.84992"
     inkscape:window-width="1920"
     inkscape:window-height="1001"
     inkscape:window-x="-9"
     inkscape:window-y="-9"
     inkscape:window-maximized="1"
     inkscape:current-layer="g1" />
  <g
     inkscape:groupmode="layer"
     inkscape:label="Image"
     id="g1"
     transform="translate(103.1115,-165.28172)">
    <path
       style="fill:#00295b;fill-opacity:1;stroke-width:0.351933"
       d="m -64.59611,285.28066 c -0.370594,-0.96575 0.07371,-5.88726 0.648584,-7.18445 0.567285,-1.28004 2.134743,-2.88515 3.364758,-3.44557 0.876738,-0.39948 0.845735,-0.67228 -0.103462,-0.91052 -0.820278,-0.20588 -1.479699,-0.64571 -1.479699,-0.98698 0,-0.11343 0.766446,-0.7439 1.703207,-1.40101 3.637047,-2.55124 6.520794,-5.7638 8.229366,-9.1677 0.389847,-0.77668 1.102491,-2.67932 1.583659,-4.22807 l 0.874843,-2.81594 2.109777,-1.6526 c 2.494811,-1.95418 4.003966,-3.5376 5.013514,-5.26028 0.775233,-1.32282 1.688947,-4.41173 1.545461,-5.22457 -0.0653,-0.36987 0.94323,-0.95524 4.420157,-2.56555 l 4.504748,-2.08634 4.082429,-5.38416 c 2.245334,-2.96129 4.824366,-6.3636 5.731179,-7.56069 1.596788,-2.10792 1.734324,-2.2136 4.363974,-3.353 6.498941,-2.81593 9.5515846,-4.17793 15.216154,-6.78896 3.313946,-1.52754 6.046614,-2.74366 6.072597,-2.70251 0.02596,0.0412 0.467013,1.53183 0.980061,3.31261 1.167295,4.05163 3.705998,11.48546 4.999814,14.64044 1.555947,3.79419 4.341218,9.24979 6.118585,11.98464 1.952111,3.00375 6.508094,7.65104 9.24161,9.42682 2.212278,1.43718 2.334913,1.30283 -2.186327,2.39511 -6.11205,1.47661 -9.613276,1.85758 -18.533505,2.0167 l -8.397823,0.14978 -1.315541,1.41584 c -5.425692,5.83934 -11.157952,9.34933 -18.238002,11.16751 -1.063591,0.27314 -1.321827,0.54962 -3.235523,3.46434 -4.366545,6.65058 -11.119473,12.09433 -16.180765,13.04384 -0.849719,0.1594 -0.959391,0.10302 -1.13135,-0.58216 -0.104739,-0.41728 -0.129641,-1.9206 -0.05536,-3.34073 0.182496,-3.48897 0.740545,-4.64319 3.795772,-7.85086 1.820186,-1.91101 2.812971,-3.24643 3.717494,-5.00047 0.678753,-1.31622 1.255212,-2.42181 1.28102,-2.45684 0.02579,-0.0351 1.43304,-0.26853 3.127178,-0.5189 13.300325,-1.96563 22.285148,-9.8558 24.3226805,-21.35938 0.3503353,-1.97793 0.3599717,-7.66078 0.014353,-8.46507 -0.216985,-0.50496 -0.2440138,-0.4858 -0.261762,0.18548 -0.03259,1.23258 -1.8564455,8.09611 -2.7943795,10.51574 -3.06104,7.89673 -9.09175,13.37986 -17.324434,15.75143 -2.17929,0.62778 -3.815013,0.89354 -10.65678,1.73138 -1.332347,0.16317 -1.337073,0.16758 -3.463884,3.24357 -5.99538,8.67104 -11.550756,14.04479 -17.412719,16.84345 -2.862256,1.36653 -4.046421,1.64371 -4.291659,1.00463 z M 62.961955,271.38343 c -1.230581,-1.03584 -2.253276,-2.19446 -2.761905,-3.12899 -0.733201,-1.34713 -0.794586,-1.66941 -0.665414,-3.49328 0.07834,-1.10508 0.241579,-2.25006 0.362918,-2.54438 0.205463,-0.49835 0.120657,-0.52187 -1.233514,-0.34224 -1.402071,0.186 -1.454136,0.16862 -1.454136,-0.48526 0,-0.37299 0.207057,-1.23256 0.460126,-1.91014 0.296805,-0.79466 0.471696,-2.19868 0.492707,-3.95528 0.02825,-2.35943 -0.04661,-2.82966 -0.560026,-3.51934 l -0.592605,-0.79602 -5.601425,-0.1821 c -7.998352,-0.26002 -11.146813,-0.92979 -14.471169,-3.07842 -3.482388,-2.25078 -5.528139,-4.5951 -7.88603,-9.03694 -0.766251,-1.4435 -1.395612,-2.49431 -1.398588,-2.33518 -0.01231,0.6621 1.522028,4.89052 2.443672,6.73421 0.736622,1.47355 1.631743,2.61352 3.469371,4.41835 l 2.476612,2.43238 -2.666498,0.7567 -2.666498,0.75672 -2.023736,-1.19439 c -2.65766,-1.56854 -6.323168,-5.15381 -8.329836,-8.14752 -3.682927,-5.49447 -7.521684,-14.41664 -10.551532,-24.52421 -2.569776,-8.57279 -2.698603,-7.37452 1.025182,-9.5355 3.691001,-2.14193 8.733039,-5.86349 11.824074,-8.72744 2.645023,-2.4507 6.17203,-6.62076 8.308192,-9.82294 1.253777,-1.87948 1.81706,-2.46842 2.759647,-2.88538 1.615854,-0.71474 6.983757,-1.59776 10.360221,-1.70421 l 2.779252,-0.0876 0.341761,1.12619 c 1.371792,4.52038 5.560166,8.2958 10.125184,9.12691 1.629629,0.29669 2.459984,0.21273 1.400357,-0.14161 -3.366898,-1.12588 -6.377385,-3.81588 -8.204496,-7.33103 -2.799776,-5.38648 -2.696126,-8.92451 0.582642,-19.89085 0.359865,-1.20364 0.799877,-2.33399 0.977781,-2.51191 0.667249,-0.66725 5.402429,1.13756 8.50422,3.24137 1.843127,1.2501 5.188905,4.55467 6.771371,6.68795 1.620214,2.18417 3.846038,6.38932 4.79528,9.05951 0.697957,1.96336 1.113783,2.48016 0.906111,1.12619 -0.416965,-2.71863 -1.141128,-5.33063 -2.094094,-7.55325 l -1.095825,-2.55579 0.987422,-2.13713 c 1.074975,-2.32664 1.825531,-5.09532 1.83208,-6.75824 0.0026,-0.58069 0.07258,-1.0558 0.156156,-1.0558 0.698811,0 2.894224,1.57827 4.656775,3.34771 2.27963,2.28859 3.318033,4.06159 4.051378,6.91751 0.55809,2.17335 0.562669,6.46487 0.0077,8.03532 -0.683517,1.9373 -0.631514,2.02314 2.023496,3.33988 3.431574,1.70188 5.243564,3.19592 8.369994,6.90127 2.83827,3.36383 3.76675,4.21164 5.67908,5.18556 1.65743,0.84411 5.28979,1.7101 8.02728,1.91379 2.03172,0.15118 2.58172,0.0899 3.89735,-0.43444 1.84136,-0.73381 2.49677,-0.61037 3.6336,0.6844 1.33297,1.51818 1.58074,2.84551 1.2099,6.48177 -0.37981,3.72419 -0.95795,6.06937 -1.88734,7.65558 -1.31011,2.236 -4.98168,3.45811 -11.73094,3.90473 -1.66088,0.10996 -2.95203,0.30943 -2.86925,0.4434 0.0828,0.13399 1.79875,0.24359 3.81324,0.24359 h 3.66265 l -0.60698,0.85242 c -0.74937,1.05237 -2.25947,1.82531 -6.61082,3.38362 -1.85821,0.66547 -5.78578,2.27564 -8.72794,3.57815 -6.675358,2.95522 -9.345073,3.86079 -13.092593,4.44097 -1.625557,0.25168 -3.229768,0.5109 -3.5649,0.57609 -0.554668,0.10796 -4.363251,3.01137 -4.528567,3.45235 -0.03857,0.1028 0.854794,0.6027 1.985182,1.11092 6.066826,2.7277 10.854918,6.67908 16.986448,14.01813 2.8967,3.46716 6.57841,8.51567 6.57841,9.02057 0,0.61165 -0.86442,0.89404 -3.70681,1.21099 -3.1074,0.34649 -6.500022,0.0326 -8.089396,-0.74851 -0.733997,-0.36071 -1.07716,-0.75924 -1.273666,-1.47915 -0.328744,-1.20433 -0.5865,-1.3979 -1.868691,-1.40343 -0.551092,-0.002 -1.202138,-0.16267 -1.44677,-0.35624 -0.244633,-0.19356 -0.977326,-1.55555 -1.628197,-3.02662 -1.441039,-3.25696 -1.92626,-3.80836 -3.898265,-4.42999 l -1.539358,-0.48522 -1.422117,-2.96218 c -1.863656,-3.8819 -3.47704,-5.50148 -9.256289,-9.29183 l -4.426365,-2.90313 -0.455558,-1.57766 c -0.870744,-3.01546 -3.619967,-7.35304 -5.194624,-8.19576 -0.38267,-0.2048 -0.266689,0.13878 0.446853,1.32374 1.274707,2.11685 1.971216,4.03828 2.608348,7.19544 l 0.52542,2.60367 2.786452,1.55402 c 4.010041,2.23639 5.33834,3.20212 7.713544,5.60809 2.310268,2.3402 4.088193,5.19679 5.301701,8.51829 0.700887,1.91838 0.751546,2.37019 0.751546,6.70257 0,3.98737 -0.09013,4.9563 -0.635819,6.83919 -0.874868,3.01836 -3.312904,7.80124 -3.976631,7.80124 -0.115567,0 -1.089516,-0.74023 -2.16433,-1.64495 z m 45.813975,-58.62712 c 0.22631,-1.10108 -0.29763,-5.76122 -0.60883,-5.41534 -0.32565,0.36188 -1.40496,3.79407 -1.40496,4.46767 0,0.73703 1.06202,2.16323 1.50168,2.01667 0.17265,-0.0576 0.40308,-0.53858 0.51211,-1.069 z M 84.47525,202.71207 c -0.0245,-0.1161 0.056,-0.4424 0.179,-0.72501 0.35302,-0.81087 -0.33789,-2.63009 -1.243869,-3.27519 -1.214974,-0.86515 -2.45053,-1.03426 -3.121286,-0.42725 -1.453132,1.31508 0.03121,3.73734 2.682332,4.37712 1.173873,0.2833 1.555843,0.29609 1.503823,0.0503 z M 65.664,187.96916 c 0.945173,-3.93991 -1.275736,-8.80014 -5.280247,-11.55534 -1.0733,-0.73844 -1.63808,-0.78825 -0.937405,-0.0828 1.070609,1.07812 5.365322,11.41042 5.365322,12.90803 0,0.92241 0.507959,0.16555 0.85233,-1.27001 z m -148.127157,54.08371 c 0.962897,-0.62235 2.357078,-1.69872 3.09818,-2.39194 1.605442,-1.5017 4.262136,-4.8168 3.67504,-4.58584 -0.226905,0.0894 -1.521394,0.62315 -2.876644,1.1864 -8.126658,3.3775 -17.76613,3.88475 -23.287699,1.22544 l -1.25722,-0.6055 1.36757,-0.34886 c 3.468635,-0.88487 6.478759,-2.93704 12.103888,-8.25199 3.787762,-3.57889 6.335775,-5.67596 7.591867,-6.24827 0.405385,-0.18471 0.737066,-0.43075 0.737066,-0.54674 0,-0.41672 -4.071329,-0.88639 -6.690555,-0.77184 l -2.672215,0.11692 1.340836,-1.14076 c 4.576634,-3.89376 8.116205,-5.95776 11.906367,-6.94286 4.231894,-1.09995 12.121022,-0.57543 13.600676,0.90423 0.402697,0.40269 0.533883,0.93937 0.533883,2.18405 v 1.65019 l -1.729218,0.15679 c -2.144436,0.19444 -5.021158,1.57011 -7.493282,3.58329 -0.968835,0.789 -3.527932,3.3602 -5.686886,5.71381 l -3.925372,4.27932 2.449095,0.0856 c 2.856827,0.0998 7.30336,-0.33133 9.910087,-0.96071 2.49669,-0.60281 6.617998,-2.62401 8.210999,-4.02686 l 1.313103,-1.15637 0.798498,0.77684 c 0.439174,0.42727 1.214952,1.09358 1.72395,1.4807 l 0.925447,0.70387 -1.066221,1.79772 c -1.369751,2.30948 -4.07557,5.2319 -6.526247,7.04866 -4.667855,3.46043 -12.947728,6.21637 -18.676247,6.21637 h -1.149467 z m 31.805663,0.18178 c -0.241789,-0.53066 -0.188424,-0.92185 0.259247,-1.90043 0.310041,-0.67773 1.827881,-3.97626 3.372985,-7.33008 l 2.809276,-6.09784 -1.392341,-1.36314 c -4.455531,-4.36211 -6.934591,-9.45284 -9.514978,-19.53891 -0.190527,-0.74473 -0.578641,-1.43935 -0.925109,-1.65574 -0.328287,-0.20502 -3.768939,-1.17438 -7.645898,-2.15412 -10.260068,-2.59286 -10.277127,-2.33056 0.542969,-8.34808 2.632462,-1.46402 5.283904,-2.8252 5.892092,-3.02484 0.83079,-0.2727 2.581256,-0.32232 7.038668,-0.1995 5.460013,0.15044 13.29222,0.8439 13.657545,1.20921 0.08467,0.0846 -0.03506,0.26072 -0.266025,0.39121 -0.230986,0.13042 -2.515533,1.67301 -5.076772,3.42782 -2.561235,1.75483 -5.119111,3.50449 -5.684169,3.88814 -1.349459,0.91625 -1.145051,1.08808 0.249067,0.20936 9.029364,-5.69117 34.59091,-20.47441 35.402094,-20.47441 0.07176,0 0.01259,0.41092 -0.131408,0.91316 -1.725089,6.01504 3.9587039,19.60952 11.28468,26.99065 l 2.405734,2.42387 -6.764993,3.10947 c -3.7207456,1.71021 -9.096235,4.09542 -11.94553,5.30047 l -5.180534,2.19098 -2.717296,3.67834 c -1.494513,2.02307 -4.123093,5.64596 -5.841289,8.05085 -3.100034,4.339 -3.137712,4.3782 -4.912548,5.10999 -0.983702,0.4056 -4.333198,1.89044 -7.443322,3.29963 -3.110125,1.40919 -5.995176,2.56215 -6.411224,2.56215 -0.522904,0 -0.850455,-0.20631 -1.060914,-0.66821 z m -3.027054,-14.42988 c -1.602859,-1.12268 -5.56355,-8.55879 -6.354474,-11.9304 -0.236117,-1.00653 -0.431176,-2.69319 -0.433462,-3.74813 l -0.0041,-1.91812 1.860412,-0.84354 c 1.023226,-0.46396 1.891203,-0.80441 1.928834,-0.7566 0.03763,0.0478 0.607342,1.79514 1.266025,3.88291 1.663247,5.27186 3.500811,8.76299 6.558931,12.46109 l 1.104029,1.33508 -0.657793,0.2477 c -4.259734,1.60403 -4.655322,1.69939 -5.268337,1.27001 z m 56.59797,-23.1306 c -5.782819,-5.8708 -10.1092009,-13.9195 -11.418371,-21.24247 -0.2289405,-1.28059 -0.4968464,-3.09877 -0.5953421,-4.04043 l -0.1790883,-1.71208 2.9079765,-1.14967 c 9.2806409,-3.66908 17.9739369,-5.25609 25.1392099,-4.58929 5.373985,0.5001 8.168223,1.21517 11.760417,3.00962 2.639436,1.31853 2.775671,2.10582 1.04623,6.0462 -3.713049,8.45985 -10.506652,16.38663 -18.708167,21.82871 -2.591961,1.71986 -7.008141,4.32167 -7.33544,4.32167 -0.100232,0 -1.278071,-1.11251 -2.617425,-2.47226 z"
       id="path1"
       sodipodi:nodetypes="sssssssscsssscssssssssssscssssssssssssssssssssssssssssscsssssscccsssssssscssssssssssscscssscssssssssssscsssssssssssscssscsscsssscssssssssssssscsssscsssssssssscssssscsssscssscssscsscssscsssscssssssssssssscscsscssssssssscsssscsssssscsssssss" />
    <path
       d="m 145.8356,283.7813 c -3.89325,-1.04856 -9.95936,-4.25687 -10.88718,-5.75812 -0.22261,-0.36018 0.87463,-2.31387 2.4383,-4.34153 l 2.84303,-3.68666 3.50706,2.472 c 4.75754,3.35343 12.32637,4.01251 15.68184,1.36556 3.2747,-2.58323 2.85971,-6.44264 -0.89694,-8.34157 -1.15668,-0.58468 -4.08306,-1.52066 -6.50306,-2.07995 -13.0956,-3.02654 -18.58867,-10.58865 -14.83368,-20.42096 2.39678,-6.27586 7.99241,-9.17685 17.70098,-9.17685 6.25607,0 8.41565,0.57973 13.74356,3.6894 l 3.41085,1.99077 -2.5405,3.75991 c -1.39727,2.06796 -2.64319,3.89096 -2.76872,4.05112 -0.12552,0.16016 -1.15136,-0.43493 -2.27963,-1.32243 -2.60106,-2.04599 -9.25115,-3.66759 -12.29708,-2.99859 -1.28416,0.28205 -3.18103,1.41354 -4.21527,2.51443 -1.7571,1.87035 -1.80149,2.14306 -0.67691,4.1585 1.20086,2.15213 2.091,2.54391 12.00666,5.28451 8.89162,2.45757 12.9875,7.03395 12.92098,14.4368 -0.0459,5.11053 -1.61625,8.42575 -5.33433,11.26166 -5.45608,4.16156 -13.03058,5.29378 -21.01996,3.142 z m 60.10538,-0.35232 c -6.25776,-2.05102 -11.54165,-6.66583 -14.47741,-12.64421 -1.95497,-3.9811 -2.24492,-5.50149 -2.24492,-11.77155 0,-8.47365 1.78109,-13.02319 7.23261,-18.47471 9.00376,-9.00376 27.95884,-9.16916 37.07369,-0.3235 5.74355,5.57393 6.8937,8.71024 6.8937,18.79821 0,8.25114 -0.14739,9.06608 -2.36316,13.06618 -1.29973,2.34639 -3.45973,5.19393 -4.8,6.32787 -6.98542,5.91003 -18.27277,7.98518 -27.31451,5.02171 z m 14.33063,-9.17481 c 1.67913,-0.59885 3.79997,-1.75305 4.71299,-2.56489 4.64117,-4.12684 6.08331,-14.37713 2.93714,-20.87627 -4.66778,-9.64234 -18.54075,-10.68171 -24.50207,-1.83571 -5.83244,8.65476 -3.01679,20.9442 5.70611,24.90543 3.88105,1.76245 6.95803,1.865 11.14583,0.37144 z m 100.93032,9.37058 c -5.78879,-2.07756 -8.78921,-4.50138 -10.91461,-8.81711 -1.76832,-3.59067 -1.88225,-4.79166 -2.1216,-22.36607 l -0.25294,-18.57165 5.24995,0.17165 5.24995,0.17165 0.0221,15.2 c 0.0247,17.02138 0.55419,20.53393 3.54625,23.52598 1.79806,1.79806 2.75232,2.07402 7.17185,2.07402 3.96636,0 5.49609,-0.35512 6.89223,-1.6 3.5287,-3.14641 3.97358,-5.71857 3.97358,-22.97431 v -16.22569 h 5.2 5.2 l -0.004,17.2 c -0.005,17.98738 -0.43797,21.2367 -3.42642,25.6941 -4.33691,6.46871 -17.00208,9.66986 -25.78584,6.51743 z m 159.58644,0.69977 c -4.80299,-1.02542 -10.09432,-4.0336 -13.39651,-7.61605 -9.03675,-9.80372 -8.67094,-27.33907 0.75536,-36.20901 4.90369,-4.61427 9.05278,-6.15554 17.57289,-6.52787 7.0847,-0.30959 8.09697,-0.15905 12.64038,1.87992 10.13905,4.55013 14.95524,13.11404 14.30818,25.44209 -0.55032,10.48494 -4.77572,16.84259 -14.01766,21.09132 -4.50816,2.07251 -12.94776,2.98891 -17.86264,1.9396 z m 14.04512,-11.32047 c 3.83733,-2.3716 6.06615,-6.41072 6.56339,-11.89432 0.94861,-10.46144 -5.12146,-17.92508 -14.57822,-17.92508 -10.54364,0 -17.09218,9.9431 -13.9648,21.20373 2.57848,9.28421 13.7882,13.67825 21.97963,8.61567 z M 608.2356,283.7813 c -3.97298,-1.07004 -9.96424,-4.26478 -10.93077,-5.82866 -0.24658,-0.39898 0.84231,-2.38201 2.41977,-4.40675 l 2.86811,-3.68134 2.51297,1.86385 c 5.63777,4.18148 13.67308,4.99746 16.94935,1.72118 4.2182,-4.21819 1.61848,-7.28504 -8.83637,-10.42416 -11.43084,-3.43217 -15.38192,-7.67463 -14.6118,-15.68938 0.53289,-5.54587 3.26311,-9.36014 8.37514,-11.7005 7.60353,-3.48102 19.42384,-2.36602 25.23776,2.38064 l 2.20108,1.79704 -2.48551,3.78425 -2.48551,3.78424 -3.68417,-2.15906 c -7.12931,-4.17806 -16.14699,-2.49336 -16.14699,3.0166 0,2.98401 0.99696,3.6175 9.82232,6.24131 8.78973,2.61322 11.22581,3.98922 13.41288,7.57613 1.9037,3.12215 2.11708,10.76799 0.39353,14.10097 -3.7313,7.21556 -14.42491,10.475 -25.01179,7.62364 z M 259.21865,258.97667 v -25.23655 l 5.4,0.23655 5.4,0.23655 0.21374,20.2 0.21374,20.2 h 10.78626 10.78626 v 4.8 4.8 h -16.4 -16.4 z m 125.60001,5.23655 v -20 h -8 -8 v -5.2 -5.2 h 21.2 21.2 v 5.2 5.2 l -7.8,-6e-4 -7.8,-5.9e-4 0.22677,20.00059 0.22678,20.0006 h -5.62678 -5.62677 z m 44.1886,-5 0.2114,-25 5.4,-0.2637 5.4,-0.2637 v 25.2637 25.2637 h -5.6114 -5.6114 z m 103.0114,-0.25266 V 233.7079 l 5.95625,0.25266 5.95625,0.25266 11.64375,16.28056 11.64375,16.28056 v -16.3994 -16.3994 l 5.4,0.11884 5.4,0.11884 0.2114,25 0.21139,25 -5.81139,-0.0201 -5.8114,-0.0201 -11.6,-16.34599 c -6.38,-8.99029 -11.78,-16.36162 -12,-16.38073 -0.22,-0.0191 -0.29583,7.34562 -0.16851,16.36606 l 0.2315,16.4008 h -5.6315 -5.63149 z"
       style="fill:#00295b;fill-opacity:1"
       id="path1-8"
       sodipodi:nodetypes="ssscssssssscssssssssssssssssssssssssscsscccsssssccccsccsssssssssssssssscsssssscccsssssscccccccccccccccccccccccccccccccccccccccccccccccccccccssscccc" />
    <path
       d="m 341.33962,213.54503 c -4.32049,-1.13985 -8.40831,-3.42005 -11.25102,-6.27586 -4.76187,-4.78382 -6.69964,-9.85126 -6.68609,-17.48473 0.0136,-7.55898 1.78583,-12.11066 6.62281,-17.0078 6.4227,-6.50262 16.48137,-9.03139 26.1193,-6.56642 10.82704,2.7691 17.16311,10.46267 17.99542,21.85095 0.90549,12.38978 -6.19985,22.49475 -17.93634,25.50847 -3.5338,0.90742 -11.38059,0.89443 -14.86408,-0.0246 z m 12.25325,-9.72161 c 4.0336,-1.23437 7.57768,-5.29813 8.52886,-9.77952 1.3041,-6.14406 -0.42926,-12.39405 -4.37369,-15.77033 -3.77523,-3.23145 -10.834,-4.05097 -15.29064,-1.77524 -2.64917,1.35278 -5.60748,4.84043 -6.60431,7.78605 -1.04304,3.08219 -1.04599,8.27636 -0.007,11.40597 2.35732,7.09712 9.87417,10.54206 17.74626,8.13307 z m 45.74773,9.7177 c -9.8069,-2.63644 -16.26804,-9.86933 -17.57067,-19.66938 -1.83806,-13.82826 5.79037,-25.13964 18.81557,-27.89965 9.37053,-1.9856 18.67461,0.46554 24.85585,6.54822 4.66584,4.59146 6.85499,10.18002 6.85499,17.49977 0,11.86533 -6.63107,20.64162 -17.77866,23.53025 -3.59594,0.93181 -11.69504,0.92689 -15.17708,-0.01 z m 13.42163,-10.06169 c 5.81692,-2.54251 8.62649,-8.47619 7.69135,-16.24384 -0.46008,-3.82159 -1.62052,-6.1344 -4.33186,-8.63364 -4.76897,-4.39588 -13.19345,-4.56448 -18.10275,-0.3623 -5.65748,4.8426 -6.53046,16.17594 -1.68914,21.92951 1.55932,1.85314 4.72315,3.68043 7.2877,4.20905 2.67195,0.55077 6.74397,0.15056 9.1447,-0.89878 z m -277.8425,-13.48518 v -23.82537 l 14.02053,0.14776 c 15.99499,0.16855 16.39101,0.25197 20.80759,4.38317 3.20387,2.99684 4.46112,6.03021 4.49173,10.83727 0.0298,4.68282 -1.01784,7.9046 -3.48008,10.70184 -1.50598,1.71089 -2.54385,2.44981 -5.60036,3.98728 -0.087,0.0437 2.29892,3.93019 5.30188,8.6366 3.00295,4.70641 5.45992,8.64704 5.45992,8.75696 0,0.10992 -2.91604,0.19737 -6.48008,0.19431 l -6.48007,-0.005 -4.47714,-7.51897 -4.47715,-7.51898 -3.88804,-0.0159 -3.88806,-0.0159 v 7.54047 7.54045 h -5.65533 -5.65534 z m 23.59071,-1.62328 c 2.69365,-0.74832 4.33782,-2.82865 4.55476,-5.7631 0.14221,-1.92339 -0.0375,-2.83702 -0.79542,-4.04465 -1.49635,-2.38414 -3.34778,-2.91712 -10.13325,-2.91712 h -5.90613 v 6.59789 6.59789 l 5.30188,-0.003 c 2.91604,-10e-4 6.05622,-0.21219 6.97816,-0.4683 z m 26.36479,1.64911 v -23.79956 h 5.65534 5.65534 v 9.18994 9.18991 h 10.13249 10.13247 v -9.18991 -9.18994 h 5.53822 5.5382 l -6e-4,23.68173 -5.8e-4,23.68175 -5.53753,0.13275 -5.53752,0.13274 v -9.67616 -9.67616 H 206.31859 196.1861 v 9.6612 9.66121 h -5.65534 -5.65534 z m 67.3928,14.5936 c 0,-6.07493 -0.18629,-9.58818 -0.5443,-10.26525 -0.29937,-0.56618 -4.22276,-7.02483 -8.71865,-14.35256 -4.4959,-7.32774 -8.17434,-13.42491 -8.17434,-13.54926 0,-0.12432 2.81724,-0.22609 6.26055,-0.22609 h 6.26055 l 5.14401,8.51323 c 2.8292,4.68226 5.28284,8.59902 5.45255,8.7039 0.16969,0.1049 2.59408,-3.63734 5.3875,-8.31604 2.79343,-4.67871 5.32807,-8.60232 5.63251,-8.71915 0.30447,-0.11685 3.10848,-0.15253 6.23117,-0.0793 l 5.67762,0.13301 -4.91875,8.01174 c -2.7053,4.40644 -6.71163,10.92525 -8.90295,14.4862 l -3.98421,6.47447 0.0579,9.07771 0.0579,9.07772 -5.45954,0.13275 -5.45953,0.13274 z m 36.28842,-14.5936 v -23.79956 h 5.41971 5.41969 v 18.85114 18.85114 h 10.36814 10.36811 v 4.94841 4.94842 h -15.78782 -15.78783 z"
       style="fill:#00295b;fill-opacity:1;stroke-width:0.589098"
       id="path1-1" />
  </g>
</svg>
